<?xml version="1.0" standalone="no"?>
<!DOCTYPE svg PUBLIC "-//W3C//DTD SVG 20010904//EN"
 "http://www.w3.org/TR/2001/REC-SVG-20010904/DTD/svg10.dtd">
<svg version="1.0" xmlns="http://www.w3.org/2000/svg"
 width="402.000000pt" height="503.000000pt" viewBox="0 0 402.000000 503.000000"
 preserveAspectRatio="xMidYMid meet">

<g transform="translate(0.000000,503.000000) scale(0.100000,-0.100000)"
fill="#000000" stroke="none">
<path d="M1964 4676 c-18 -8 -36 -22 -42 -32 -9 -16 -10 -16 -21 4 -14 25 -49
29 -58 6 -4 -12 -14 -14 -42 -9 -70 13 -247 17 -231 6 12 -9 9 -11 -15 -12
-41 -1 -100 -23 -100 -38 0 -12 -23 -31 -38 -31 -5 0 -5 5 -2 10 3 6 2 10 -4
10 -5 0 -22 -16 -36 -35 -15 -18 -50 -47 -78 -64 -110 -62 -282 -259 -359
-409 -15 -29 -40 -70 -56 -90 -27 -34 -42 -65 -42 -85 0 -4 -6 -20 -14 -35
-14 -28 -32 -75 -88 -242 -37 -110 -68 -252 -68 -311 0 -25 -11 -81 -25 -123
-14 -42 -25 -92 -25 -111 0 -19 -9 -61 -19 -92 -11 -32 -27 -92 -36 -133 -9
-41 -23 -93 -30 -115 -14 -40 -70 -255 -86 -330 -4 -22 -18 -76 -29 -120 -37
-138 -70 -270 -70 -279 0 -26 20 15 33 69 9 33 21 74 28 90 7 17 13 42 14 56
2 25 34 93 35 74 0 -13 -55 -231 -69 -270 -37 -107 -69 -228 -64 -243 3 -9 3
-14 -2 -10 -12 12 -35 -19 -35 -47 0 -14 -9 -47 -19 -73 -39 -97 -63 -178 -63
-211 1 -32 -31 -89 -46 -84 -4 2 -10 -7 -13 -20 -8 -28 -37 -87 -54 -107 -7
-8 -16 -26 -20 -40 -9 -32 57 57 88 118 32 65 46 72 36 17 -5 -25 -13 -55 -19
-68 -10 -20 -9 -19 9 3 17 21 21 22 21 7 0 -25 -36 -93 -54 -100 -19 -8 -94
-107 -129 -171 -18 -35 -27 -65 -27 -98 l0 -47 56 -28 c48 -23 53 -28 34 -33
-21 -5 -21 -6 -3 -21 24 -22 124 -64 307 -129 l149 -54 23 -53 c13 -29 24 -68
24 -85 0 -42 -13 -27 -35 39 -18 56 -45 83 -82 83 -28 0 -29 -19 -3 -53 11
-14 20 -28 20 -31 0 -9 -109 47 -177 91 -32 21 -79 47 -103 58 -25 11 -48 23
-51 28 -3 5 -9 8 -13 8 -3 -1 -20 6 -36 14 -17 9 -35 13 -40 10 -6 -4 -12 0
-15 7 -3 8 -17 15 -31 16 -24 2 -24 0 -22 -58 2 -46 6 -60 18 -61 125 -8 142
-20 206 -145 54 -106 133 -233 171 -275 l23 -25 -27 2 c-36 3 -78 19 -114 45
-16 11 -45 21 -66 23 -21 2 -46 7 -55 11 -9 3 -25 2 -37 -4 -11 -6 -29 -11
-40 -11 -11 0 -22 -8 -24 -18 -4 -15 -5 -15 -6 1 0 10 -6 17 -12 15 -6 -2 -10
-8 -9 -13 1 -5 -7 -12 -16 -15 -12 -4 -1 -9 31 -13 52 -8 283 -64 402 -99 63
-18 71 -23 63 -38 -6 -12 -19 -17 -35 -16 -14 2 -25 -1 -25 -5 0 -5 58 -9 130
-9 122 0 130 1 130 19 0 15 -8 21 -32 23 -33 3 -33 3 -13 21 42 39 156 123
208 155 l54 33 64 -38 c71 -41 165 -82 190 -83 12 0 18 11 21 40 2 22 0 40 -5
40 -5 0 -7 11 -5 25 3 15 1 22 -5 18 -6 -4 -8 2 -5 15 4 14 2 20 -5 15 -6 -4
-8 2 -5 15 4 12 2 20 -3 16 -5 -3 -10 5 -11 18 0 13 -2 34 -3 48 -5 75 -32
170 -73 261 -60 132 -62 143 -52 247 14 154 66 313 103 320 16 3 17 1 8 -16
-17 -32 -13 -88 9 -135 11 -23 26 -62 35 -87 9 -25 38 -82 65 -126 28 -45 50
-86 50 -92 0 -6 4 -14 10 -17 6 -4 7 2 1 18 -5 13 -12 38 -14 56 -4 26 -2 31
9 27 13 -5 15 17 13 150 -1 87 -6 149 -10 142 -13 -19 -11 33 2 89 20 83 40
133 55 133 19 0 18 4 -12 52 -34 54 -160 306 -168 338 -6 21 -4 20 15 -8 12
-18 23 -31 25 -30 1 2 -1 46 -6 99 -5 66 -16 116 -36 165 -27 67 -28 75 -28
249 0 162 2 186 22 238 12 32 27 79 33 105 5 26 17 54 25 63 7 8 16 38 19 65
l6 49 -16 -30 c-8 -16 -13 -23 -11 -14 3 10 10 44 17 78 9 47 19 68 48 96 33
33 40 36 76 31 22 -4 85 -11 140 -17 55 -5 127 -17 160 -26 91 -24 112 -26
120 -13 11 18 -27 62 -61 73 -62 19 -122 29 -195 34 -60 3 -79 1 -92 -11 -19
-20 -27 -20 -27 -3 0 8 -11 19 -24 25 -14 6 -32 22 -40 35 -14 21 -14 32 9
126 14 56 25 112 26 124 0 21 37 94 106 209 29 49 50 72 173 188 43 40 155
100 189 100 14 0 14 2 1 10 -17 11 -17 11 44 39 37 17 58 21 90 16 39 -7 40
-6 21 9 -13 10 -15 15 -6 16 10 0 10 5 -3 26 -10 14 -15 31 -13 37 2 7 -4 23
-14 37 -20 30 -48 154 -56 254 -5 59 -3 71 11 82 10 7 15 17 11 23 -4 7 4 11
19 11 15 0 44 17 72 41 63 54 182 133 224 147 42 15 45 15 30 -3 -11 -13 -8
-15 21 -15 22 0 29 -3 21 -9 -8 -5 12 -10 53 -14 36 -4 73 -11 83 -17 12 -7
-3 -8 -54 -4 -123 11 -257 -31 -316 -99 -16 -17 -28 -27 -28 -22 0 6 -11 -8
-24 -30 -30 -51 -45 -226 -26 -305 16 -67 29 -72 28 -11 -1 38 5 59 23 85 13
20 28 36 33 36 4 0 5 -29 1 -65 -4 -36 -3 -64 2 -63 4 1 18 -3 31 -10 20 -11
22 -18 16 -50 l-7 -37 21 23 21 23 3 -28 c3 -25 10 -30 63 -48 34 -11 73 -28
88 -37 14 -10 31 -18 37 -18 5 0 36 -20 69 -45 32 -25 64 -45 69 -45 5 0 32
-22 60 -50 27 -27 52 -47 54 -45 3 3 5 -1 5 -8 0 -7 18 -38 41 -68 22 -30 46
-75 52 -102 7 -26 16 -50 21 -53 5 -3 9 -29 9 -59 0 -30 5 -57 11 -60 5 -4 21
-31 34 -61 13 -30 31 -62 40 -70 8 -8 15 -30 15 -47 0 -60 40 -270 72 -376 28
-93 32 -124 35 -251 4 -121 1 -162 -17 -245 -12 -55 -25 -134 -30 -175 -20
-177 -65 -304 -159 -445 -15 -22 -32 -53 -39 -69 -25 -57 -7 -526 23 -619 l14
-42 -5 43 c-5 35 -2 46 17 66 13 14 27 22 31 20 13 -9 9 -83 -8 -135 -15 -46
-15 -54 1 -112 9 -34 16 -72 16 -84 -1 -24 -96 -264 -137 -344 -13 -26 -30
-49 -39 -53 -9 -3 -14 -10 -11 -14 3 -5 -22 -28 -54 -52 -33 -24 -60 -45 -60
-47 0 -12 33 1 51 19 20 22 21 22 17 3 -2 -14 -18 -25 -52 -36 -29 -10 -68
-34 -93 -58 -25 -23 -49 -38 -55 -35 -7 4 -8 2 -4 -4 4 -7 30 -12 59 -12 31 0
47 4 39 8 -9 6 0 21 34 52 28 26 49 39 52 32 2 -7 8 -10 13 -7 5 4 5 -4 0 -17
-4 -13 -16 -23 -26 -23 -10 0 -24 -10 -32 -22 -15 -23 -15 -23 42 -23 46 0 56
3 52 15 -8 20 105 161 174 218 31 25 92 67 135 94 44 27 99 63 124 80 25 17
48 29 52 27 5 -3 8 -1 8 3 0 5 15 17 33 27 17 11 110 70 204 133 95 63 195
123 222 133 61 24 119 62 114 77 -10 28 19 20 44 -13 15 -20 60 -75 98 -123
79 -96 135 -180 135 -202 0 -8 4 -19 9 -24 4 -6 11 -23 15 -40 4 -19 3 -25 -2
-17 -7 10 -23 1 -68 -41 -72 -66 -177 -143 -207 -153 -12 -4 -76 -37 -142 -74
-66 -37 -142 -79 -170 -94 l-50 -26 72 0 c64 0 79 4 125 32 29 18 55 36 56 40
2 4 10 8 18 8 8 0 14 5 14 11 0 5 4 8 9 5 5 -3 14 1 21 9 7 8 16 15 20 15 4 0
27 9 51 19 24 11 48 20 53 20 5 -1 12 3 15 8 13 17 71 53 71 43 0 -5 -6 -10
-12 -11 -7 0 -4 -4 7 -9 11 -5 14 -9 8 -9 -23 -2 -14 -21 15 -33 15 -6 31 -10
35 -9 5 1 6 -3 2 -9 -3 -5 1 -10 9 -10 9 0 16 -4 16 -10 0 -5 14 -16 30 -25
17 -9 30 -11 30 -5 0 5 -4 10 -9 10 -14 0 -61 52 -55 61 3 5 -5 9 -17 9 -17 0
-19 3 -10 13 6 8 9 17 6 21 -3 3 1 2 7 -4 15 -12 28 -13 28 -1 0 5 -14 18 -30
28 l-30 19 35 34 c19 19 35 30 35 24 0 -5 -9 -18 -21 -27 -27 -23 -23 -32 34
-74 l47 -35 -1 76 c-1 70 -9 91 -24 66 -3 -6 -1 -10 6 -10 7 0 10 -3 6 -6 -14
-14 -27 7 -17 27 6 11 14 17 19 15 4 -3 8 47 9 110 2 110 -2 126 -25 103 -11
-11 -6 -49 6 -49 4 0 8 -7 8 -15 0 -11 -4 -12 -14 -4 -7 6 -13 15 -13 20 0 37
-82 169 -104 169 -16 0 -82 70 -148 158 -33 43 -55 62 -70 62 -21 0 -21 1 -3
14 18 13 17 16 -23 55 -36 36 -42 47 -42 85 0 65 -12 136 -21 130 -5 -3 -6
-26 -4 -52 4 -40 4 -43 -5 -18 -5 16 -9 63 -9 105 2 224 -1 303 -13 380 -14
91 -18 534 -6 606 4 22 5 31 1 20 -7 -25 -33 -63 -33 -48 0 6 7 27 15 46 9 22
14 64 14 104 -1 52 -3 60 -8 33 -10 -56 -19 -15 -26 117 -4 65 -13 148 -21
185 -17 80 -19 147 -4 132 6 -6 19 -67 29 -135 17 -109 19 -117 20 -64 1 55
-13 139 -54 332 -8 40 -20 83 -25 95 -16 37 -50 180 -50 208 0 15 -7 51 -15
81 -8 30 -22 79 -30 109 -93 343 -130 440 -226 599 -24 41 -53 89 -64 107 -50
84 -118 164 -210 250 -139 129 -213 180 -339 236 -132 59 -216 71 -290 43 -42
-16 -48 -16 -64 -3 -23 21 -62 32 -62 19 0 -6 4 -11 10 -11 5 0 7 -7 3 -16 -5
-14 -7 -15 -15 -1 -9 16 -63 47 -82 47 -6 -1 -25 -7 -42 -14z m-167 -128 c27
-44 4 -63 -48 -41 -34 14 -34 14 -11 27 12 6 19 15 16 19 -4 4 2 7 14 7 11 0
24 -6 29 -12z m630 -4 c-3 -3 -12 -4 -19 -1 -8 3 -5 6 6 6 11 1 17 -2 13 -5z
m-414 -54 c3 -11 1 -20 -4 -20 -5 0 -9 9 -9 20 0 11 2 20 4 20 2 0 6 -9 9 -20z
m2 -50 c-27 -12 -43 -12 -25 0 8 5 22 9 30 9 10 0 8 -3 -5 -9z m540 -20 c3 -6
-1 -7 -9 -4 -18 7 -21 14 -7 14 6 0 13 -4 16 -10z m-905 -19 c0 -11 8 -21 18
-23 9 -3 -15 -8 -55 -12 -43 -5 -78 -4 -89 2 -14 8 -6 13 42 30 75 26 84 26
84 3z m875 -28 c87 -28 169 -70 206 -105 10 -9 29 -24 43 -33 13 -9 29 -30 35
-47 10 -29 8 -27 -42 21 -65 63 -77 71 -168 117 -65 33 -84 38 -165 42 -75 4
-91 7 -87 19 7 18 101 10 178 -14z m-247 5 c-33 -12 -38 -32 -5 -23 14 5 8 -3
-18 -22 -57 -41 -74 -47 -67 -21 4 17 2 20 -13 14 -16 -6 -16 -4 -4 10 17 21
87 53 114 53 15 -1 13 -3 -7 -11z m-895 -35 c-7 -2 -19 -2 -25 0 -7 3 -2 5 12
5 14 0 19 -2 13 -5z m1077 -68 c14 -8 21 -14 15 -14 -5 0 -21 6 -35 14 -14 8
-20 14 -15 14 6 0 21 -6 35 -14z m-804 -72 c-6 -24 -65 -93 -79 -93 -3 0 -1
16 3 34 5 24 3 41 -6 55 -17 23 -8 29 50 30 37 1 38 0 32 -26z m878 -109 c83
-40 82 -57 -1 -29 -37 13 -93 26 -124 30 -40 5 -56 11 -56 22 0 25 110 11 181
-23z m180 -115 c14 -13 -17 -4 -52 14 -18 10 -30 22 -26 28 3 5 0 18 -8 27
-10 14 32 -20 86 -69z m-1074 51 c0 -5 -5 -10 -11 -10 -5 0 -7 5 -4 10 3 6 8
10 11 10 2 0 4 -4 4 -10z m935 -77 c19 -13 19 -13 0 -12 -28 1 -50 12 -52 26
-3 14 20 8 52 -14z m-858 -59 c-3 -3 -12 -4 -19 -1 -8 3 -5 6 6 6 11 1 17 -2
13 -5z m-52 -14 c-27 -12 -43 -12 -25 0 8 5 22 9 30 9 10 0 8 -3 -5 -9z m1059
-79 c4 -5 -12 -1 -33 10 -22 10 -43 24 -46 30 -4 6 11 1 33 -10 22 -11 43 -25
46 -30z m119 15 c16 -14 33 -26 37 -28 11 -4 170 -317 170 -335 0 -7 16 -60
35 -119 19 -59 33 -110 30 -112 -2 -2 -9 15 -16 37 -7 23 -15 37 -19 31 -3 -5
-17 27 -30 72 -27 96 -87 231 -130 295 -17 24 -30 47 -30 52 0 4 -22 32 -50
63 -27 31 -50 59 -50 62 0 14 27 4 53 -18z m-1353 -36 c-9 -17 -8 -20 9 -20
11 0 41 7 67 16 69 23 62 13 -18 -26 -39 -19 -89 -53 -111 -77 -45 -48 -54
-50 -33 -8 15 29 12 50 -5 40 -5 -4 -9 -2 -9 4 0 9 95 91 106 91 3 0 0 -9 -6
-20z m1271 -7 c13 -16 12 -17 -3 -4 -17 13 -22 21 -14 21 2 0 10 -8 17 -17z
m-1441 -167 c0 -2 -8 -10 -17 -17 -16 -13 -17 -12 -4 4 13 16 21 21 21 13z
m-570 -78 c0 -35 -15 -67 -25 -56 -7 6 12 88 20 88 3 0 5 -15 5 -32z m630 -13
c0 -1 -11 -24 -25 -52 -23 -50 -52 -84 -38 -46 6 16 5 16 -10 4 -26 -21 -20
-1 14 50 18 25 38 46 45 46 8 0 14 -1 14 -2z m-149 -62 c-12 -20 -14 -14 -5
12 4 9 9 14 11 11 3 -2 0 -13 -6 -23z m-21 -63 c-7 -17 -15 -29 -17 -26 -3 3
1 18 8 35 17 39 26 31 9 -9z m2153 -105 l6 -40 -14 30 c-16 34 -20 75 -6 60 5
-6 11 -28 14 -50z m-2101 -2 c-3 -16 -7 -22 -10 -15 -4 13 4 42 11 42 2 0 2
-12 -1 -27z m1879 -117 c6 -17 20 -49 29 -71 9 -22 24 -62 33 -90 13 -41 13
-46 1 -31 -14 20 -14 20 -28 0 -14 -18 -15 -18 -25 9 -18 47 -24 104 -12 111
8 5 7 12 -4 22 -8 9 -13 20 -10 25 4 5 1 9 -5 9 -7 0 -10 6 -7 14 3 7 1 18 -4
23 -6 6 -4 10 5 10 8 0 20 -14 27 -31z m-1907 -40 c-3 -15 -8 -25 -11 -23 -2
3 -1 17 3 31 3 15 8 25 11 23 2 -3 1 -17 -3 -31z m-30 -140 c-3 -21 -8 -35
-11 -32 -2 2 -1 20 3 40 3 21 8 35 11 32 2 -2 1 -20 -3 -40z m2223 -8 c-3 -8
-6 -5 -6 6 -1 11 2 17 5 13 3 -3 4 -12 1 -19z m-2250 -150 c-3 -8 -6 -5 -6 6
-1 11 2 17 5 13 3 -3 4 -12 1 -19z m2010 -60 c-3 -8 -6 -5 -6 6 -1 11 2 17 5
13 3 -3 4 -12 1 -19z m-1976 -121 c-10 -9 -11 -8 -5 6 3 10 9 15 12 12 3 -3 0
-11 -7 -18z m-34 -109 c-3 -7 -5 -2 -5 12 0 14 2 19 5 13 2 -7 2 -19 0 -25z
m-673 -70 c-6 -37 -32 -114 -34 -97 0 11 22 124 27 132 10 17 13 4 7 -35z
m637 -290 l-9 -33 -1 45 c0 25 3 63 7 85 l7 40 3 -52 c2 -28 -1 -66 -7 -85z
m-857 -576 c-9 -29 -18 -52 -21 -52 -5 0 6 55 19 89 16 43 17 16 2 -37z m-32
-114 c-7 -7 -12 -8 -12 -2 0 14 12 26 19 19 2 -3 -1 -11 -7 -17z m2593 -118
c11 -21 47 -76 81 -122 33 -46 75 -114 93 -151 32 -65 33 -71 21 -108 -15 -44
-20 -47 -38 -19 -14 22 -102 70 -130 70 -15 0 -23 19 -44 98 -32 118 -39 174
-31 241 7 58 14 57 48 -9z m-2614 -43 c-13 -13 -15 1 -4 30 7 17 8 17 11 -1 2
-10 -1 -23 -7 -29z m-84 -204 c-8 -15 -25 -37 -38 -48 l-22 -20 16 28 c43 70
49 78 54 74 2 -3 -2 -18 -10 -34z m3018 -109 c16 -14 47 -34 70 -44 44 -19 85
-65 85 -97 0 -41 11 -61 31 -56 12 4 19 0 19 -10 0 -8 7 -20 15 -27 8 -7 15
-16 15 -20 0 -7 -188 -138 -249 -175 -8 -5 -2 8 13 28 15 20 33 38 39 40 7 2
9 7 5 11 -3 4 -16 3 -27 -4 -16 -8 -21 -8 -22 2 -2 15 -3 10 22 102 11 43 15
76 9 90 -4 11 -14 40 -21 64 -7 23 -18 42 -26 42 -7 0 -13 4 -13 9 0 5 -3 23
-6 40 -8 38 4 40 41 5z m-327 -129 c0 -34 -1 -36 -8 -15 -4 14 -8 43 -8 65 0
34 1 36 8 15 4 -14 8 -43 8 -65z m139 49 c-3 -3 -12 -4 -19 -1 -8 3 -5 6 6 6
11 1 17 -2 13 -5z m-2277 -150 c0 -9 5 -12 10 -9 6 3 13 -1 16 -10 6 -14 9
-14 33 1 l26 17 -22 -25 c-31 -33 -40 -80 -19 -97 14 -12 23 -8 64 25 87 72
81 69 98 52 8 -8 21 -54 28 -104 8 -49 19 -108 25 -132 18 -66 -4 -166 -40
-177 -11 -4 -42 -28 -69 -55 -27 -27 -52 -44 -56 -39 -3 6 -15 4 -30 -6 -13
-8 -24 -11 -24 -5 0 5 -6 10 -13 10 -20 0 -57 48 -51 65 4 10 -3 18 -20 25
-26 9 -26 10 -27 122 0 62 0 141 1 175 1 55 -1 61 -17 57 -10 -3 -34 2 -53 10
-19 8 -31 15 -26 16 5 0 2 7 -5 16 -7 9 -15 27 -17 40 -4 34 37 50 121 46 51
-3 67 -7 67 -18z m2199 -115 c1 -9 12 -28 26 -43 20 -21 25 -38 25 -76 0 -72
-12 -92 -78 -133 -67 -41 -88 -47 -77 -19 5 9 9 49 11 87 1 39 14 115 28 170
14 55 26 109 27 120 1 21 37 -79 38 -106z m-2664 71 c3 -6 -1 -7 -9 -4 -18 7
-21 14 -7 14 6 0 13 -4 16 -10z m56 -25 c19 -8 27 -14 19 -14 -14 0 -72 28
-59 29 4 0 22 -7 40 -15z m688 -16 c9 -27 9 -30 -4 -19 -8 7 -15 21 -15 31 0
28 7 23 19 -12z m-411 -69 c44 -28 44 -35 -3 -30 -24 2 -67 39 -59 51 7 13 9
12 62 -21z m-493 0 c3 -6 -1 -7 -9 -4 -18 7 -21 14 -7 14 6 0 13 -4 16 -10z
m40 -10 c3 -6 -1 -7 -9 -4 -18 7 -21 14 -7 14 6 0 13 -4 16 -10z m72 -26 c-5
-5 -57 13 -57 20 0 3 14 0 31 -6 16 -6 28 -12 26 -14z m33 -13 c0 -6 -4 -12
-8 -15 -5 -3 -9 1 -9 9 0 8 4 15 9 15 4 0 8 -4 8 -9z m70 -47 c0 -2 -9 0 -20
6 -11 6 -20 13 -20 16 0 2 9 0 20 -6 11 -6 20 -13 20 -16z m-5 -24 c10 -11 16
-20 13 -20 -3 0 -13 9 -23 20 -10 11 -16 20 -13 20 3 0 13 -9 23 -20z m76 -67
c43 -59 79 -100 134 -154 16 -16 26 -29 21 -29 -17 0 25 -38 55 -50 24 -10 28
-17 23 -34 -11 -34 -14 -33 -61 19 -25 28 -49 50 -53 50 -11 0 -63 65 -57 71
3 3 11 -4 17 -16 6 -12 14 -19 17 -17 8 9 -28 57 -38 51 -5 -3 -8 0 -7 7 2 7
-2 13 -9 14 -6 0 -15 4 -20 9 -5 5 -2 6 6 1 9 -5 12 -3 9 6 -3 8 -11 13 -17
11 -6 -1 -10 4 -9 10 2 7 -3 12 -10 10 -8 -1 -10 2 -7 8 4 6 -5 29 -19 51 -39
58 -25 48 25 -18z m299 -252 c-5 -11 -10 -29 -10 -40 0 -14 -5 -19 -15 -15
-19 8 -19 19 1 49 19 29 39 34 24 6z m-475 -11 c8 -13 -5 -13 -25 0 -13 8 -13
10 2 10 9 0 20 -4 23 -10z m515 -34 c0 -3 -15 -15 -32 -27 l-33 -23 24 27 c22
24 41 35 41 23z m1795 -52 c-36 -28 -61 -36 -30 -10 17 14 35 25 40 25 6 0 1
-7 -10 -15z"/>
<path d="M466 267 c3 -10 9 -15 12 -12 3 3 0 11 -7 18 -10 9 -11 8 -5 -6z"/>
<path d="M2731 3330 c0 -8 4 -24 9 -35 5 -13 9 -14 9 -5 0 8 -4 24 -9 35 -5
13 -9 14 -9 5z"/>
<path d="M1424 3316 c-3 -8 -4 -25 -2 -38 2 -19 5 -17 15 15 10 35 -1 55 -13
23z"/>
<path d="M1397 3181 c-4 -17 -3 -21 5 -13 5 5 8 16 6 23 -3 8 -7 3 -11 -10z"/>
<path d="M2505 2970 c-59 -7 -59 -7 27 -8 49 -1 90 2 93 8 7 11 -22 11 -120 0z"/>
<path d="M2639 2952 c8 -6 11 -17 7 -27 -5 -13 -13 -16 -34 -10 -15 4 -51 9
-79 12 -29 3 -53 9 -53 14 0 12 -147 11 -155 -1 -3 -5 -14 -10 -24 -10 -22 0
-71 -37 -71 -54 0 -18 61 -19 102 -2 41 18 403 32 413 16 6 -9 93 -70 100 -70
2 0 -5 15 -16 34 -19 33 -87 76 -120 76 -8 0 -19 4 -24 9 -6 5 -21 12 -35 16
-18 4 -21 3 -11 -3z"/>
<path d="M2399 2831 c-36 -9 -82 -26 -103 -39 -36 -21 -38 -25 -33 -59 4 -21
2 -42 -5 -50 -6 -7 -9 -15 -7 -18 8 -7 99 76 114 105 17 34 60 52 111 48 43
-3 53 -21 14 -26 -99 -10 -115 -24 -104 -92 6 -36 10 -41 47 -51 58 -15 84 -1
99 56 l12 45 23 -22 c25 -24 31 -68 9 -68 -8 0 -24 -9 -37 -20 l-24 -19 67 -1
c55 0 71 4 93 23 37 31 26 65 -37 122 -41 37 -141 88 -166 84 -4 -1 -37 -9
-73 -18z m-39 -51 c0 -13 -28 -25 -38 -16 -3 4 0 11 8 16 20 13 30 12 30 0z
m120 -45 c10 -12 9 -15 -8 -15 -29 0 -53 11 -46 21 8 14 40 11 54 -6z"/>
<path d="M1465 2821 c-16 -4 -44 -15 -61 -24 -32 -17 -104 -90 -104 -107 0 -5
14 -25 30 -43 30 -34 31 -35 98 -30 97 7 104 11 52 37 -49 23 -63 55 -35 82
20 21 45 11 45 -18 0 -55 43 -79 108 -62 42 12 69 98 38 123 -8 6 -37 14 -65
18 -54 6 -60 23 -8 23 53 0 71 -9 101 -53 32 -46 106 -115 106 -100 0 6 -19
31 -41 57 -46 52 -45 70 2 42 31 -18 31 -18 20 2 -20 38 -90 62 -177 61 -43
-1 -92 -4 -109 -8z m145 -76 c11 -13 7 -15 -24 -15 -34 0 -44 8 -29 23 11 12
40 8 53 -8z"/>
<path d="M3521 2474 c0 -11 3 -14 6 -6 3 7 2 16 -1 19 -3 4 -6 -2 -5 -13z"/>
<path d="M3537 2095 c7 -49 13 -58 13 -19 0 16 -5 36 -10 44 -6 10 -7 2 -3
-25z"/>
<path d="M1800 2040 c11 -7 6 -10 -20 -10 l-35 0 25 -20 c27 -22 77 -23 73 -2
-2 6 7 12 20 12 21 1 22 1 3 15 -11 8 -34 15 -50 15 -24 0 -27 -3 -16 -10z"/>
<path d="M2110 2035 c-16 -20 3 -20 45 0 l30 13 -31 1 c-17 1 -37 -6 -44 -14z"/>
<path d="M2200 2010 c-9 -6 -10 -10 -3 -10 6 0 15 5 18 10 8 12 4 12 -15 0z"/>
<path d="M3542 1970 c0 -19 2 -27 5 -17 2 9 2 25 0 35 -3 9 -5 1 -5 -18z"/>
<path d="M3553 1870 c0 -36 2 -50 4 -32 2 17 2 47 0 65 -2 17 -4 3 -4 -33z"/>
<path d="M3561 1754 c0 -11 3 -14 6 -6 3 7 2 16 -1 19 -3 4 -6 -2 -5 -13z"/>
<path d="M1732 1680 c-98 -27 -104 -44 -12 -34 41 4 196 7 343 7 148 -1 265 3
260 7 -38 34 -190 46 -295 23 -59 -13 -72 -13 -119 1 -66 20 -98 19 -177 -4z"/>
<path d="M3582 1560 c0 -14 2 -19 5 -12 2 6 2 18 0 25 -3 6 -5 1 -5 -13z"/>
<path d="M1968 1493 c7 -3 16 -2 19 1 4 3 -2 6 -13 5 -11 0 -14 -3 -6 -6z"/>
<path d="M3561 1258 c-1 -20 4 -40 9 -43 12 -7 12 19 0 55 -7 22 -8 21 -9 -12z"/>
<path d="M120 1205 c-7 -9 -10 -18 -7 -21 3 -3 10 4 17 15 13 25 8 27 -10 6z"/>
<path d="M25 1166 c-9 -21 -14 -43 -12 -49 2 -6 11 9 21 32 9 24 14 46 12 49
-3 3 -13 -12 -21 -32z"/>
<path d="M51 1134 c0 -11 3 -14 6 -6 3 7 2 16 -1 19 -3 4 -6 -2 -5 -13z"/>
<path d="M1333 925 c0 -33 2 -45 4 -27 2 18 2 45 0 60 -2 15 -4 0 -4 -33z"/>
<path d="M3709 883 c5 -10 20 -28 33 -39 12 -12 54 -54 93 -93 38 -39 72 -71
75 -71 11 0 52 142 43 151 -4 4 -26 12 -48 18 -22 5 -73 19 -112 30 -90 26
-96 26 -84 4z"/>
<path d="M3727 732 c2 -10 26 -47 53 -84 38 -51 54 -65 74 -65 14 0 26 3 26 8
0 14 -91 112 -126 136 -28 19 -31 20 -27 5z"/>
<path d="M1320 734 c0 -6 7 -19 16 -30 14 -18 14 -18 3 6 -14 31 -19 36 -19
24z"/>
<path d="M3707 699 c-23 -13 -57 -81 -57 -113 0 -18 6 -27 23 -31 59 -13 79
-9 109 19 l26 23 -32 40 c-17 23 -35 48 -41 57 -8 11 -14 13 -28 5z"/>
<path d="M3979 637 c-22 -20 -24 -27 -15 -48 14 -34 14 -34 36 -14 12 11 20
31 20 52 0 39 -6 40 -41 10z"/>
<path d="M3704 126 c-61 -33 -118 -67 -127 -74 -9 -8 -22 -10 -28 -6 -8 5 -9
3 -4 -6 6 -10 4 -12 -9 -7 -10 4 -15 3 -11 -3 4 -6 100 -10 250 -10 l244 0 -1
35 c-1 22 -4 31 -9 23 -6 -9 -12 -9 -26 3 -10 8 -35 24 -55 34 -21 11 -38 23
-38 28 0 4 -4 6 -8 3 -5 -3 -21 6 -37 20 -15 13 -29 24 -29 23 -1 -1 -51 -29
-112 -63z"/>
<path d="M1211 170 c0 -8 4 -22 9 -30 12 -18 12 -2 0 25 -6 13 -9 15 -9 5z"/>
<path d="M0 70 l0 -52 173 5 c94 3 186 7 202 11 23 5 26 4 10 -3 -17 -8 -16
-10 12 -10 17 -1 34 3 37 8 7 11 -88 35 -114 28 -13 -3 -18 -1 -13 6 4 6 -2 8
-15 5 -12 -4 -22 -1 -22 4 0 7 -14 8 -35 5 -20 -3 -33 -2 -30 2 2 5 -30 14
-73 21 -42 7 -89 15 -104 17 -28 5 -28 5 -28 -47z m118 13 c-10 -2 -26 -2 -35
0 -10 3 -2 5 17 5 19 0 27 -2 18 -5z m69 -9 c-3 -3 -12 -4 -19 -1 -8 3 -5 6 6
6 11 1 17 -2 13 -5z"/>
<path d="M1236 100 c3 -14 11 -32 16 -40 6 -10 7 -7 2 10 -3 14 -11 32 -16 40
-6 10 -7 7 -2 -10z"/>
</g>
</svg>
