<?xml version="1.0" standalone="no"?>
<!DOCTYPE svg PUBLIC "-//W3C//DTD SVG 20010904//EN"
 "http://www.w3.org/TR/2001/REC-SVG-20010904/DTD/svg10.dtd">
<svg version="1.0" xmlns="http://www.w3.org/2000/svg"
 width="1230.000000pt" height="1280.000000pt" viewBox="0 0 1230.000000 1280.000000"
 preserveAspectRatio="xMidYMid meet">
<g transform="translate(0.000000,1280.000000) scale(0.100000,-0.100000)"
fill="#000000" stroke="none">
<path d="M5505 12776 c-139 -29 -174 -40 -256 -83 -133 -69 -198 -146 -496
-593 -765 -1148 -1820 -3152 -2945 -5595 -792 -1720 -1501 -3429 -1533 -3696
-4 -30 -35 -142 -70 -249 -67 -206 -124 -412 -149 -545 -25 -131 -56 -362 -56
-421 0 -113 54 -361 98 -449 32 -65 345 -395 517 -545 207 -180 367 -291 571
-393 196 -98 353 -145 614 -183 177 -25 282 -29 388 -15 37 5 110 15 162 21
52 6 145 20 205 31 93 17 948 233 1915 484 135 35 693 179 1240 320 547 141
1132 292 1300 335 287 74 613 158 1770 456 267 69 613 158 770 199 157 41 611
158 1010 260 984 253 1011 260 1095 299 227 105 427 302 524 517 44 98 77 211
101 354 25 146 24 204 -9 395 -47 270 -98 385 -366 815 -1032 1657 -1867 2981
-2482 3935 -429 667 -501 777 -836 1290 -579 885 -1330 2004 -1611 2399 -138
195 -298 339 -503 454 -185 104 -350 161 -590 202 -172 30 -234 30 -378 1z"/>
</g>
</svg>
